<?xml version="1.0" standalone="no"?>
<!DOCTYPE svg PUBLIC "-//W3C//DTD SVG 20010904//EN"
 "http://www.w3.org/TR/2001/REC-SVG-20010904/DTD/svg10.dtd">
<svg version="1.0" xmlns="http://www.w3.org/2000/svg"
 width="876.000000pt" height="876.000000pt" viewBox="0 0 876.000000 876.000000"
 preserveAspectRatio="xMidYMid meet">
<metadata>
Created by potrace 1.11, written by Peter Selinger 2001-2013
</metadata>
<g transform="translate(0.000000,876.000000) scale(0.100000,-0.100000)"
fill="#000000" stroke="none">
<path d="M3558 6636 c-110 -39 -484 -371 -529 -470 -20 -46 -17 -74 16 -139
50 -98 101 -165 209 -272 113 -113 168 -149 243 -161 61 -10 93 -31 93 -61 0
-47 40 -175 82 -263 42 -88 81 -152 213 -354 148 -228 171 -284 179 -441 3
-55 8 -114 11 -132 4 -21 -13 -97 -53 -240 -86 -301 -111 -429 -117 -608 -13
-363 -15 -373 -90 -530 -90 -187 -88 -176 -86 -460 2 -345 -9 -419 -85 -550
-125 -214 -127 -221 -66 -230 20 -3 54 -11 74 -17 50 -15 76 4 132 90 90 139
116 203 126 313 12 123 56 261 141 438 l60 125 3 131 c2 126 3 132 38 200 19
39 52 113 73 165 20 52 41 104 45 115 24 57 195 445 212 478 10 20 22 37 27
37 10 0 42 -108 78 -260 23 -99 27 -138 27 -280 0 -143 -3 -177 -23 -250 -32
-117 -33 -125 -33 -210 -1 -49 7 -103 22 -155 20 -73 22 -92 16 -240 -7 -183
-11 -223 -33 -357 -13 -79 -14 -102 -3 -127 15 -38 21 -39 150 -47 58 -3 139
-11 180 -18 127 -22 215 -4 215 44 0 19 -9 29 -35 41 -165 78 -235 116 -262
140 -29 28 -30 31 -24 92 8 69 38 205 96 432 55 218 59 242 65 435 8 247 11
268 65 430 64 187 72 226 71 336 0 100 -15 203 -60 427 -36 173 -46 210 -99
342 -22 55 -52 143 -66 195 -15 52 -43 134 -63 183 -33 82 -34 89 -20 111 9
13 27 50 40 83 14 33 45 95 71 136 25 42 54 107 64 144 l19 67 94 2 c80 1 106
6 172 33 125 50 210 105 298 194 130 130 136 146 95 257 -41 113 -97 203 -191
308 -17 18 -59 77 -95 130 -79 117 -108 136 -193 128 -60 -6 -121 -31 -148
-62 -27 -31 -47 -78 -43 -102 5 -27 46 -107 72 -140 21 -27 49 -21 62 13 10
27 65 40 103 26 29 -11 34 -32 43 -182 l6 -107 -52 14 c-48 12 -57 12 -94 -5
-23 -9 -56 -35 -74 -56 -33 -37 -34 -38 -72 -25 -48 16 -142 17 -195 2 -34
-10 -100 -48 -150 -86 -15 -11 -143 46 -151 67 -9 24 44 168 72 198 34 36 53
118 50 222 -4 137 -47 199 -166 243 -66 24 -157 23 -199 -1 -106 -62 -162
-237 -127 -397 35 -161 30 -191 -41 -239 l-47 -32 -40 22 c-121 68 -182 90
-252 91 -21 0 -48 13 -80 38 -63 50 -134 82 -180 82 -30 0 -35 3 -29 18 4 9
18 51 32 92 31 93 48 122 112 184 l50 49 55 -56 c31 -31 56 -60 56 -66 0 -6
12 -18 26 -28 26 -17 27 -16 48 8 11 13 34 30 49 37 63 28 67 142 8 190 -30
24 -106 59 -151 70 -81 20 -104 21 -142 8z"/>
<path d="M1775 6589 c-107 -8 -163 -22 -228 -57 -114 -62 -195 -204 -211 -372
-3 -30 -8 -237 -11 -460 -8 -595 -14 -788 -26 -854 -19 -109 -87 -255 -153
-332 -40 -47 -137 -102 -198 -112 -33 -6 -44 -13 -49 -32 -4 -14 -7 -109 -8
-211 l-1 -186 49 -11 c133 -30 224 -107 290 -243 84 -174 84 -179 96 -1024 6
-444 9 -503 31 -590 31 -128 121 -263 205 -305 77 -40 143 -47 522 -56 l267
-6 0 215 0 215 -172 4 c-194 5 -229 14 -271 69 -26 35 -52 106 -62 169 -7 47
-14 304 -20 760 -5 400 -11 477 -46 584 -42 129 -159 301 -251 371 -55 42 -56
54 -6 94 134 110 239 280 271 441 22 110 26 179 32 560 12 767 17 811 102 892
52 50 88 58 263 58 l160 0 0 215 0 215 -242 -3 c-134 -1 -283 -5 -333 -8z"/>
<path d="M6350 6386 l0 -216 138 -1 c150 0 169 -2 229 -18 65 -18 111 -83 133
-188 20 -99 21 -111 35 -933 2 -157 7 -301 10 -320 29 -182 154 -399 285 -495
l52 -38 -79 -76 c-100 -97 -154 -168 -197 -262 -60 -131 -68 -189 -72 -524 -6
-458 -13 -786 -18 -826 -13 -111 -21 -149 -43 -196 -33 -68 -76 -102 -155
-119 -5 -1 -78 -2 -163 -3 l-155 -1 0 -216 0 -217 273 7 c321 8 382 12 462 33
146 37 246 171 279 377 3 15 8 202 11 415 9 598 14 779 26 866 13 101 70 276
107 335 59 93 155 158 248 167 l54 6 0 218 0 219 -27 1 c-46 1 -76 9 -120 30
-124 60 -197 182 -252 419 -21 89 -21 86 -37 995 -6 351 -7 375 -30 455 -23
78 -49 126 -102 182 -69 74 -127 103 -242 123 -19 3 -173 8 -342 12 l-308 6 0
-217z"/>
</g>
</svg>
